# xmcd CD database file
# Copyright (C) 1993-1998 Ti Kan
#
# Track frame offsets:
#	150
#	22333
#	37118
#	57890
#	75285
#	95233
#	117120
#	142145
#	163955
#	186040
#	206643
#	234673
#	241923
#	243043
#	244220
#	245383
#	246420
#	247540
#	248738
#	249795
#	250893
#	252108
#
# Disc length: 3426 seconds
#
# Revision: 1
# Processed by: cddbd v1.4b41PL1 Copyright (c) Steve Scherf et al.
# Submitted via: CDValet v3.01 - Copyright (c) 1997 Greg Leichner
#
DISCID=2b0d6016
DTITLE=The Merchants of Venus - Wish Across the Land
DYEAR=1900
DGENRE=
TTITLE0=Postcards from Heaven
TTITLE1=Coming for Christine
TTITLE2=One man
TTITLE3=The Arms of  Morpheus
TTITLE4=Morning Glory
TTITLE5=She Knows It
TTITLE6=Still Recall
TTITLE7=What Am I Looking For
TTITLE8=First Kiss Of Love
TTITLE9=I Want It All
TTITLE10=The Long Road
TTITLE11=
TTITLE12=
TTITLE13=
TTITLE14=
TTITLE15=
TTITLE16=
TTITLE17=
TTITLE18=
TTITLE19=
TTITLE20=
TTITLE21=
EXTD=
EXTT0=
EXTT1=
EXTT2=
EXTT3=
EXTT4=
EXTT5=
EXTT6=
EXTT7=
EXTT8=
EXTT9=
EXTT10=
EXTT11=
EXTT12=
EXTT13=
EXTT14=
EXTT15=
EXTT16=
EXTT17=
EXTT18=
EXTT19=
EXTT20=
EXTT21=
PLAYORDER=
